<mxfile host="app.diagrams.net" modified="2023-11-03T01:56:30.376Z" agent="Mozilla/5.0 (Windows NT 10.0; Win64; x64) AppleWebKit/537.36 (KHTML, like Gecko) Chrome/118.0.0.0 Safari/537.36" etag="LRhdhMUVrB_rQbbkTvJ8" version="22.0.8" type="github">
  <diagram name="Page-1" id="sPBNFI-OgW7skOOOl_jI">
    <mxGraphModel dx="1434" dy="756" grid="1" gridSize="10" guides="1" tooltips="1" connect="1" arrows="1" fold="1" page="1" pageScale="1" pageWidth="827" pageHeight="1169" math="0" shadow="0">
      <root>
        <mxCell id="0" />
        <mxCell id="1" parent="0" />
        <mxCell id="kDRH_y1kx5Qmn7YR0gMR-8" value="für alle Servies:&lt;br&gt;signiert Quote" style="edgeStyle=orthogonalEdgeStyle;rounded=0;orthogonalLoop=1;jettySize=auto;html=1;exitX=0.5;exitY=1;exitDx=0;exitDy=0;entryX=0.5;entryY=0;entryDx=0;entryDy=0;" edge="1" parent="1" source="kDRH_y1kx5Qmn7YR0gMR-1" target="kDRH_y1kx5Qmn7YR0gMR-4">
          <mxGeometry relative="1" as="geometry" />
        </mxCell>
        <mxCell id="kDRH_y1kx5Qmn7YR0gMR-1" value="Intel&lt;br&gt;für alle Services:&lt;br&gt;generiert SGX Endorsement Keys" style="rounded=0;whiteSpace=wrap;html=1;" vertex="1" parent="1">
          <mxGeometry x="270" y="120" width="120" height="60" as="geometry" />
        </mxCell>
        <mxCell id="kDRH_y1kx5Qmn7YR0gMR-9" value="5) signiert&amp;nbsp; Intermediate &lt;br&gt;Server Key Pair" style="edgeStyle=orthogonalEdgeStyle;rounded=0;orthogonalLoop=1;jettySize=auto;html=1;exitX=0.5;exitY=1;exitDx=0;exitDy=0;entryX=0.5;entryY=0;entryDx=0;entryDy=0;" edge="1" parent="1" source="kDRH_y1kx5Qmn7YR0gMR-2" target="kDRH_y1kx5Qmn7YR0gMR-5">
          <mxGeometry relative="1" as="geometry" />
        </mxCell>
        <mxCell id="kDRH_y1kx5Qmn7YR0gMR-2" value="RPKI&lt;br&gt;1) Generiert eigenes Key Pair" style="rounded=0;whiteSpace=wrap;html=1;" vertex="1" parent="1">
          <mxGeometry x="510" y="120" width="120" height="60" as="geometry" />
        </mxCell>
        <mxCell id="kDRH_y1kx5Qmn7YR0gMR-11" value="6) generiert X.509 Zertifikat + Key Pair" style="edgeStyle=orthogonalEdgeStyle;rounded=0;orthogonalLoop=1;jettySize=auto;html=1;exitX=0.5;exitY=1;exitDx=0;exitDy=0;entryX=0;entryY=0.5;entryDx=0;entryDy=0;" edge="1" parent="1" source="kDRH_y1kx5Qmn7YR0gMR-4" target="kDRH_y1kx5Qmn7YR0gMR-6">
          <mxGeometry relative="1" as="geometry" />
        </mxCell>
        <mxCell id="kDRH_y1kx5Qmn7YR0gMR-12" value="3) Generiert X.509 Zertiifikat + Key Pair" style="edgeStyle=orthogonalEdgeStyle;rounded=0;orthogonalLoop=1;jettySize=auto;html=1;exitX=1;exitY=0.5;exitDx=0;exitDy=0;" edge="1" parent="1" source="kDRH_y1kx5Qmn7YR0gMR-4" target="kDRH_y1kx5Qmn7YR0gMR-5">
          <mxGeometry relative="1" as="geometry" />
        </mxCell>
        <mxCell id="kDRH_y1kx5Qmn7YR0gMR-4" value="Coordinator&lt;br&gt;2) Erstellt Root und Intermediate Zertifikat" style="rounded=0;whiteSpace=wrap;html=1;" vertex="1" parent="1">
          <mxGeometry x="130" y="360" width="120" height="60" as="geometry" />
        </mxCell>
        <mxCell id="kDRH_y1kx5Qmn7YR0gMR-10" value="8) signiert Client Key Pair" style="edgeStyle=orthogonalEdgeStyle;rounded=0;orthogonalLoop=1;jettySize=auto;html=1;exitX=0.5;exitY=1;exitDx=0;exitDy=0;entryX=0.5;entryY=0;entryDx=0;entryDy=0;" edge="1" parent="1" source="kDRH_y1kx5Qmn7YR0gMR-5" target="kDRH_y1kx5Qmn7YR0gMR-6">
          <mxGeometry relative="1" as="geometry" />
        </mxCell>
        <mxCell id="kDRH_y1kx5Qmn7YR0gMR-5" value="PKI Server&lt;br&gt;4) Generiert intermediate Server Key Pair" style="rounded=0;whiteSpace=wrap;html=1;" vertex="1" parent="1">
          <mxGeometry x="510" y="360" width="120" height="60" as="geometry" />
        </mxCell>
        <mxCell id="kDRH_y1kx5Qmn7YR0gMR-6" value="PKI Client&lt;br&gt;7) Generiert Client Key Pair" style="rounded=0;whiteSpace=wrap;html=1;" vertex="1" parent="1">
          <mxGeometry x="510" y="530" width="120" height="60" as="geometry" />
        </mxCell>
      </root>
    </mxGraphModel>
  </diagram>
</mxfile>
